<mxfile host="Electron" agent="Mozilla/5.0 (Macintosh; Intel Mac OS X 10_15_7) AppleWebKit/537.36 (KHTML, like Gecko) draw.io/25.0.2 Chrome/128.0.6613.186 Electron/32.2.5 Safari/537.36" version="25.0.2">
  <diagram name="Seite-1" id="AwcVcW9VP8zm1qtS3SrH">
    <mxGraphModel dx="1122" dy="793" grid="1" gridSize="10" guides="1" tooltips="1" connect="1" arrows="1" fold="1" page="1" pageScale="1" pageWidth="827" pageHeight="1169" math="0" shadow="0">
      <root>
        <mxCell id="0" />
        <mxCell id="1" parent="0" />
        <mxCell id="4HplRLwEA6IAALqAFYQo-86" value="" style="rounded=0;whiteSpace=wrap;html=1;fillColor=#E6E6E6;" vertex="1" parent="1">
          <mxGeometry x="760" y="20" width="369" height="390" as="geometry" />
        </mxCell>
        <mxCell id="4HplRLwEA6IAALqAFYQo-85" value="" style="rounded=0;whiteSpace=wrap;html=1;fillColor=#E6E6E6;" vertex="1" parent="1">
          <mxGeometry x="400" y="20" width="350" height="390" as="geometry" />
        </mxCell>
        <mxCell id="HqEFTpVDg2efrMnKJrko-23" value="" style="rounded=0;whiteSpace=wrap;html=1;fillColor=#E6E6E6;" parent="1" vertex="1">
          <mxGeometry x="40" y="20" width="350" height="390" as="geometry" />
        </mxCell>
        <mxCell id="X-KIfJeAQy9R9fYGySRZ-61" value="" style="rounded=1;whiteSpace=wrap;html=1;fillColor=#FFFFCC;" parent="1" vertex="1">
          <mxGeometry x="799" y="365" width="56" height="40" as="geometry" />
        </mxCell>
        <mxCell id="X-KIfJeAQy9R9fYGySRZ-60" value="" style="rounded=1;whiteSpace=wrap;html=1;fillColor=#CCFFFF;" parent="1" vertex="1">
          <mxGeometry x="859" y="365" width="152" height="40" as="geometry" />
        </mxCell>
        <mxCell id="X-KIfJeAQy9R9fYGySRZ-1" value="byte0" style="rounded=1;whiteSpace=wrap;html=1;fillColor=#4D9900;fontColor=#FFFFFF;" parent="1" vertex="1">
          <mxGeometry x="60" y="370" width="40" height="30" as="geometry" />
        </mxCell>
        <mxCell id="X-KIfJeAQy9R9fYGySRZ-2" value="byte1" style="rounded=1;whiteSpace=wrap;html=1;fillColor=#4D9900;fontColor=#FFFFFF;" parent="1" vertex="1">
          <mxGeometry x="110" y="370" width="40" height="30" as="geometry" />
        </mxCell>
        <mxCell id="X-KIfJeAQy9R9fYGySRZ-3" value="byte2" style="rounded=1;whiteSpace=wrap;html=1;fillColor=#4D9900;fontColor=#FFFFFF;" parent="1" vertex="1">
          <mxGeometry x="160" y="370" width="40" height="30" as="geometry" />
        </mxCell>
        <mxCell id="X-KIfJeAQy9R9fYGySRZ-29" style="edgeStyle=orthogonalEdgeStyle;rounded=0;orthogonalLoop=1;jettySize=auto;html=1;exitX=0.5;exitY=0;exitDx=0;exitDy=0;" parent="1" source="X-KIfJeAQy9R9fYGySRZ-4" edge="1">
          <mxGeometry relative="1" as="geometry">
            <mxPoint x="229.89873417721515" y="350" as="targetPoint" />
          </mxGeometry>
        </mxCell>
        <mxCell id="X-KIfJeAQy9R9fYGySRZ-4" value="byte3" style="rounded=1;whiteSpace=wrap;html=1;fillColor=#4D9900;fontColor=#FFFFFF;" parent="1" vertex="1">
          <mxGeometry x="210" y="370" width="40" height="30" as="geometry" />
        </mxCell>
        <mxCell id="X-KIfJeAQy9R9fYGySRZ-5" value="Tiny transformer" style="rounded=1;whiteSpace=wrap;html=1;fillColor=#000099;fontColor=#FFFFFF;" parent="1" vertex="1">
          <mxGeometry x="60" y="310" width="190" height="40" as="geometry" />
        </mxCell>
        <mxCell id="X-KIfJeAQy9R9fYGySRZ-6" value="latent0" style="rounded=1;whiteSpace=wrap;html=1;fillColor=#B35900;fontColor=#FFFFFF;" parent="1" vertex="1">
          <mxGeometry x="60" y="260" width="40" height="30" as="geometry" />
        </mxCell>
        <mxCell id="X-KIfJeAQy9R9fYGySRZ-7" value="latent1" style="rounded=1;whiteSpace=wrap;html=1;fillColor=#B35900;fontColor=#FFFFFF;" parent="1" vertex="1">
          <mxGeometry x="110" y="260" width="40" height="30" as="geometry" />
        </mxCell>
        <mxCell id="X-KIfJeAQy9R9fYGySRZ-8" value="latent2" style="rounded=1;whiteSpace=wrap;html=1;fillColor=#B35900;fontColor=#FFFFFF;" parent="1" vertex="1">
          <mxGeometry x="160" y="260" width="40" height="30" as="geometry" />
        </mxCell>
        <mxCell id="X-KIfJeAQy9R9fYGySRZ-9" value="latent3" style="rounded=1;whiteSpace=wrap;html=1;fillColor=#B35900;fontColor=#FFFFFF;" parent="1" vertex="1">
          <mxGeometry x="210" y="260" width="40" height="30" as="geometry" />
        </mxCell>
        <mxCell id="X-KIfJeAQy9R9fYGySRZ-10" value="byte0" style="rounded=1;whiteSpace=wrap;html=1;fillColor=#4d9901;fontColor=#FFFFFF;" parent="1" vertex="1">
          <mxGeometry x="60" y="90" width="40" height="30" as="geometry" />
        </mxCell>
        <mxCell id="X-KIfJeAQy9R9fYGySRZ-11" value="byte1" style="rounded=1;whiteSpace=wrap;html=1;fillColor=#4d9901;fontColor=#FFFFFF;" parent="1" vertex="1">
          <mxGeometry x="110" y="90" width="40" height="30" as="geometry" />
        </mxCell>
        <mxCell id="X-KIfJeAQy9R9fYGySRZ-12" value="byte2" style="rounded=1;whiteSpace=wrap;html=1;fillColor=#4d9901;fontColor=#FFFFFF;" parent="1" vertex="1">
          <mxGeometry x="160" y="90" width="40" height="30" as="geometry" />
        </mxCell>
        <mxCell id="X-KIfJeAQy9R9fYGySRZ-13" value="byte3" style="rounded=1;whiteSpace=wrap;html=1;fillColor=#4d9901;fontColor=#FFFFFF;" parent="1" vertex="1">
          <mxGeometry x="210" y="90" width="40" height="30" as="geometry" />
        </mxCell>
        <mxCell id="X-KIfJeAQy9R9fYGySRZ-18" value="FC-0" style="rounded=1;whiteSpace=wrap;html=1;fillColor=#030099;fontColor=#FFFFFF;" parent="1" vertex="1">
          <mxGeometry x="210" y="210" width="40" height="30" as="geometry" />
        </mxCell>
        <mxCell id="X-KIfJeAQy9R9fYGySRZ-40" style="edgeStyle=orthogonalEdgeStyle;rounded=0;orthogonalLoop=1;jettySize=auto;html=1;exitX=0.5;exitY=0;exitDx=0;exitDy=0;entryX=0.5;entryY=1;entryDx=0;entryDy=0;" parent="1" source="X-KIfJeAQy9R9fYGySRZ-19" target="X-KIfJeAQy9R9fYGySRZ-23" edge="1">
          <mxGeometry relative="1" as="geometry" />
        </mxCell>
        <mxCell id="X-KIfJeAQy9R9fYGySRZ-19" value="FC-1" style="rounded=1;whiteSpace=wrap;html=1;fillColor=#030099;fontColor=#FFFFFF;" parent="1" vertex="1">
          <mxGeometry x="160" y="210" width="40" height="30" as="geometry" />
        </mxCell>
        <mxCell id="X-KIfJeAQy9R9fYGySRZ-39" style="edgeStyle=orthogonalEdgeStyle;rounded=0;orthogonalLoop=1;jettySize=auto;html=1;exitX=0.5;exitY=0;exitDx=0;exitDy=0;entryX=0.5;entryY=1;entryDx=0;entryDy=0;" parent="1" source="X-KIfJeAQy9R9fYGySRZ-20" target="X-KIfJeAQy9R9fYGySRZ-24" edge="1">
          <mxGeometry relative="1" as="geometry" />
        </mxCell>
        <mxCell id="X-KIfJeAQy9R9fYGySRZ-20" value="FC-2" style="rounded=1;whiteSpace=wrap;html=1;fillColor=#030099;fontColor=#FFFFFF;" parent="1" vertex="1">
          <mxGeometry x="110" y="210" width="40" height="30" as="geometry" />
        </mxCell>
        <mxCell id="X-KIfJeAQy9R9fYGySRZ-38" style="edgeStyle=orthogonalEdgeStyle;rounded=0;orthogonalLoop=1;jettySize=auto;html=1;exitX=0.5;exitY=0;exitDx=0;exitDy=0;entryX=0.5;entryY=1;entryDx=0;entryDy=0;" parent="1" source="X-KIfJeAQy9R9fYGySRZ-21" target="X-KIfJeAQy9R9fYGySRZ-25" edge="1">
          <mxGeometry relative="1" as="geometry" />
        </mxCell>
        <mxCell id="X-KIfJeAQy9R9fYGySRZ-21" value="FC-3" style="rounded=1;whiteSpace=wrap;html=1;fillColor=#030099;fontColor=#FFFFFF;" parent="1" vertex="1">
          <mxGeometry x="60" y="210" width="40" height="30" as="geometry" />
        </mxCell>
        <mxCell id="X-KIfJeAQy9R9fYGySRZ-22" value="Probs 3-3" style="rounded=1;whiteSpace=wrap;html=1;fillColor=#B35900;fontColor=#FFFFFF;" parent="1" vertex="1">
          <mxGeometry x="210" y="150" width="40" height="30" as="geometry" />
        </mxCell>
        <mxCell id="X-KIfJeAQy9R9fYGySRZ-23" value="Probs 3-2" style="rounded=1;whiteSpace=wrap;html=1;fillColor=#E67300;fontColor=#FFFFFF;" parent="1" vertex="1">
          <mxGeometry x="160" y="150" width="40" height="30" as="geometry" />
        </mxCell>
        <mxCell id="X-KIfJeAQy9R9fYGySRZ-24" value="Probs&lt;div&gt;3-1&lt;/div&gt;" style="rounded=1;whiteSpace=wrap;html=1;fillColor=#B35900;fontColor=#FFFFFF;" parent="1" vertex="1">
          <mxGeometry x="110" y="150" width="40" height="30" as="geometry" />
        </mxCell>
        <mxCell id="X-KIfJeAQy9R9fYGySRZ-25" value="Probs&lt;div&gt;3-0&lt;/div&gt;" style="rounded=1;whiteSpace=wrap;html=1;fillColor=#B35900;fontColor=#FFFFFF;" parent="1" vertex="1">
          <mxGeometry x="60" y="150" width="40" height="30" as="geometry" />
        </mxCell>
        <mxCell id="X-KIfJeAQy9R9fYGySRZ-26" style="edgeStyle=orthogonalEdgeStyle;rounded=0;orthogonalLoop=1;jettySize=auto;html=1;exitX=0.5;exitY=0;exitDx=0;exitDy=0;" parent="1" source="X-KIfJeAQy9R9fYGySRZ-1" edge="1">
          <mxGeometry relative="1" as="geometry">
            <mxPoint x="80" y="350" as="targetPoint" />
          </mxGeometry>
        </mxCell>
        <mxCell id="X-KIfJeAQy9R9fYGySRZ-27" style="edgeStyle=orthogonalEdgeStyle;rounded=0;orthogonalLoop=1;jettySize=auto;html=1;exitX=0.5;exitY=0;exitDx=0;exitDy=0;" parent="1" source="X-KIfJeAQy9R9fYGySRZ-2" edge="1">
          <mxGeometry relative="1" as="geometry">
            <mxPoint x="130" y="350" as="targetPoint" />
          </mxGeometry>
        </mxCell>
        <mxCell id="X-KIfJeAQy9R9fYGySRZ-28" style="edgeStyle=orthogonalEdgeStyle;rounded=0;orthogonalLoop=1;jettySize=auto;html=1;exitX=0.5;exitY=0;exitDx=0;exitDy=0;" parent="1" source="X-KIfJeAQy9R9fYGySRZ-3" edge="1">
          <mxGeometry relative="1" as="geometry">
            <mxPoint x="181" y="350" as="targetPoint" />
          </mxGeometry>
        </mxCell>
        <mxCell id="X-KIfJeAQy9R9fYGySRZ-30" value="" style="endArrow=classic;html=1;rounded=0;entryX=0.5;entryY=1;entryDx=0;entryDy=0;exitX=0.105;exitY=0;exitDx=0;exitDy=0;exitPerimeter=0;" parent="1" source="X-KIfJeAQy9R9fYGySRZ-5" target="X-KIfJeAQy9R9fYGySRZ-6" edge="1">
          <mxGeometry width="50" height="50" relative="1" as="geometry">
            <mxPoint x="110" y="320" as="sourcePoint" />
            <mxPoint x="160" y="270" as="targetPoint" />
          </mxGeometry>
        </mxCell>
        <mxCell id="X-KIfJeAQy9R9fYGySRZ-31" value="" style="endArrow=classic;html=1;rounded=0;entryX=0.5;entryY=1;entryDx=0;entryDy=0;exitX=0.105;exitY=0;exitDx=0;exitDy=0;exitPerimeter=0;" parent="1" edge="1">
          <mxGeometry width="50" height="50" relative="1" as="geometry">
            <mxPoint x="129.87" y="310" as="sourcePoint" />
            <mxPoint x="129.87" y="290" as="targetPoint" />
          </mxGeometry>
        </mxCell>
        <mxCell id="X-KIfJeAQy9R9fYGySRZ-32" value="" style="endArrow=classic;html=1;rounded=0;entryX=0.5;entryY=1;entryDx=0;entryDy=0;exitX=0.105;exitY=0;exitDx=0;exitDy=0;exitPerimeter=0;" parent="1" edge="1">
          <mxGeometry width="50" height="50" relative="1" as="geometry">
            <mxPoint x="179.87" y="310" as="sourcePoint" />
            <mxPoint x="179.87" y="290" as="targetPoint" />
          </mxGeometry>
        </mxCell>
        <mxCell id="X-KIfJeAQy9R9fYGySRZ-33" value="" style="endArrow=classic;html=1;rounded=0;entryX=0.5;entryY=1;entryDx=0;entryDy=0;exitX=0.105;exitY=0;exitDx=0;exitDy=0;exitPerimeter=0;" parent="1" edge="1">
          <mxGeometry width="50" height="50" relative="1" as="geometry">
            <mxPoint x="229.87" y="310" as="sourcePoint" />
            <mxPoint x="229.87" y="290" as="targetPoint" />
          </mxGeometry>
        </mxCell>
        <mxCell id="X-KIfJeAQy9R9fYGySRZ-34" value="" style="endArrow=classic;html=1;rounded=0;entryX=0.5;entryY=1;entryDx=0;entryDy=0;exitX=0.105;exitY=0;exitDx=0;exitDy=0;exitPerimeter=0;" parent="1" edge="1">
          <mxGeometry width="50" height="50" relative="1" as="geometry">
            <mxPoint x="229.87" y="260" as="sourcePoint" />
            <mxPoint x="229.87" y="240" as="targetPoint" />
          </mxGeometry>
        </mxCell>
        <mxCell id="X-KIfJeAQy9R9fYGySRZ-35" value="" style="endArrow=classic;html=1;rounded=0;entryX=1;entryY=1;entryDx=0;entryDy=0;exitX=0.5;exitY=0;exitDx=0;exitDy=0;" parent="1" source="X-KIfJeAQy9R9fYGySRZ-9" target="X-KIfJeAQy9R9fYGySRZ-19" edge="1">
          <mxGeometry width="50" height="50" relative="1" as="geometry">
            <mxPoint x="220" y="270" as="sourcePoint" />
            <mxPoint x="220" y="250" as="targetPoint" />
          </mxGeometry>
        </mxCell>
        <mxCell id="X-KIfJeAQy9R9fYGySRZ-36" value="" style="endArrow=classic;html=1;rounded=0;entryX=1;entryY=1;entryDx=0;entryDy=0;exitX=0.5;exitY=0;exitDx=0;exitDy=0;" parent="1" source="X-KIfJeAQy9R9fYGySRZ-9" target="X-KIfJeAQy9R9fYGySRZ-20" edge="1">
          <mxGeometry width="50" height="50" relative="1" as="geometry">
            <mxPoint x="240" y="250" as="sourcePoint" />
            <mxPoint x="200" y="250" as="targetPoint" />
          </mxGeometry>
        </mxCell>
        <mxCell id="X-KIfJeAQy9R9fYGySRZ-37" value="" style="endArrow=classic;html=1;rounded=0;entryX=1;entryY=1;entryDx=0;entryDy=0;exitX=0.5;exitY=0;exitDx=0;exitDy=0;" parent="1" source="X-KIfJeAQy9R9fYGySRZ-9" target="X-KIfJeAQy9R9fYGySRZ-21" edge="1">
          <mxGeometry width="50" height="50" relative="1" as="geometry">
            <mxPoint x="240" y="270" as="sourcePoint" />
            <mxPoint x="160" y="250" as="targetPoint" />
          </mxGeometry>
        </mxCell>
        <mxCell id="X-KIfJeAQy9R9fYGySRZ-41" style="edgeStyle=orthogonalEdgeStyle;rounded=0;orthogonalLoop=1;jettySize=auto;html=1;exitX=0.5;exitY=0;exitDx=0;exitDy=0;entryX=0.5;entryY=1;entryDx=0;entryDy=0;" parent="1" source="X-KIfJeAQy9R9fYGySRZ-18" target="X-KIfJeAQy9R9fYGySRZ-22" edge="1">
          <mxGeometry relative="1" as="geometry" />
        </mxCell>
        <mxCell id="X-KIfJeAQy9R9fYGySRZ-42" value="Output probability distributions&amp;nbsp;&lt;div&gt;(from latent3)&lt;/div&gt;" style="text;html=1;align=center;verticalAlign=middle;whiteSpace=wrap;rounded=0;" parent="1" vertex="1">
          <mxGeometry x="260" y="150" width="110" height="30" as="geometry" />
        </mxCell>
        <mxCell id="X-KIfJeAQy9R9fYGySRZ-43" value="Shared fully connected language heads (only shown for latent 3)" style="text;html=1;align=center;verticalAlign=middle;whiteSpace=wrap;rounded=0;" parent="1" vertex="1">
          <mxGeometry x="250" y="205" width="130" height="40" as="geometry" />
        </mxCell>
        <mxCell id="X-KIfJeAQy9R9fYGySRZ-44" value="Transformer latents" style="text;html=1;align=center;verticalAlign=middle;whiteSpace=wrap;rounded=0;" parent="1" vertex="1">
          <mxGeometry x="260" y="260" width="110" height="30" as="geometry" />
        </mxCell>
        <mxCell id="X-KIfJeAQy9R9fYGySRZ-45" value="Very small transformer" style="text;html=1;align=center;verticalAlign=middle;whiteSpace=wrap;rounded=0;" parent="1" vertex="1">
          <mxGeometry x="260" y="315" width="110" height="30" as="geometry" />
        </mxCell>
        <mxCell id="X-KIfJeAQy9R9fYGySRZ-46" value="Input bytes" style="text;html=1;align=center;verticalAlign=middle;whiteSpace=wrap;rounded=0;" parent="1" vertex="1">
          <mxGeometry x="260" y="370" width="110" height="30" as="geometry" />
        </mxCell>
        <mxCell id="X-KIfJeAQy9R9fYGySRZ-47" value="Target bytes are not shifted!" style="text;html=1;align=center;verticalAlign=middle;whiteSpace=wrap;rounded=0;" parent="1" vertex="1">
          <mxGeometry x="260" y="90" width="110" height="30" as="geometry" />
        </mxCell>
        <mxCell id="X-KIfJeAQy9R9fYGySRZ-48" value="latent0" style="rounded=1;whiteSpace=wrap;html=1;fillColor=#B35900;fontColor=#FFFFFF;" parent="1" vertex="1">
          <mxGeometry x="807" y="370" width="40" height="30" as="geometry" />
        </mxCell>
        <mxCell id="X-KIfJeAQy9R9fYGySRZ-49" value="latent1" style="rounded=1;whiteSpace=wrap;html=1;fillColor=#B35900;fontColor=#FFFFFF;" parent="1" vertex="1">
          <mxGeometry x="865" y="370" width="40" height="30" as="geometry" />
        </mxCell>
        <mxCell id="X-KIfJeAQy9R9fYGySRZ-50" value="latent2" style="rounded=1;whiteSpace=wrap;html=1;fillColor=#B35900;fontColor=#FFFFFF;" parent="1" vertex="1">
          <mxGeometry x="915" y="370" width="40" height="30" as="geometry" />
        </mxCell>
        <mxCell id="X-KIfJeAQy9R9fYGySRZ-51" value="latent3" style="rounded=1;whiteSpace=wrap;html=1;fillColor=#B35900;fontColor=#FFFFFF;" parent="1" vertex="1">
          <mxGeometry x="965" y="370" width="40" height="30" as="geometry" />
        </mxCell>
        <mxCell id="X-KIfJeAQy9R9fYGySRZ-62" value="Patch1" style="rounded=1;whiteSpace=wrap;html=1;fillColor=#CCFFFF;fontColor=#000000;" parent="1" vertex="1">
          <mxGeometry x="955" y="315" width="40" height="30" as="geometry" />
        </mxCell>
        <mxCell id="X-KIfJeAQy9R9fYGySRZ-63" value="Patch0" style="rounded=1;whiteSpace=wrap;html=1;fillColor=#FFFFCC;fontColor=#000000;" parent="1" vertex="1">
          <mxGeometry x="905" y="315" width="40" height="30" as="geometry" />
        </mxCell>
        <mxCell id="HqEFTpVDg2efrMnKJrko-11" style="edgeStyle=orthogonalEdgeStyle;rounded=0;orthogonalLoop=1;jettySize=auto;html=1;exitX=0;exitY=0;exitDx=0;exitDy=0;entryX=0.5;entryY=1;entryDx=0;entryDy=0;" parent="1" source="X-KIfJeAQy9R9fYGySRZ-67" target="HqEFTpVDg2efrMnKJrko-8" edge="1">
          <mxGeometry relative="1" as="geometry" />
        </mxCell>
        <mxCell id="HqEFTpVDg2efrMnKJrko-12" style="edgeStyle=orthogonalEdgeStyle;rounded=0;orthogonalLoop=1;jettySize=auto;html=1;exitX=0.25;exitY=0;exitDx=0;exitDy=0;entryX=0.5;entryY=1;entryDx=0;entryDy=0;" parent="1" source="X-KIfJeAQy9R9fYGySRZ-67" target="HqEFTpVDg2efrMnKJrko-7" edge="1">
          <mxGeometry relative="1" as="geometry" />
        </mxCell>
        <mxCell id="HqEFTpVDg2efrMnKJrko-13" style="edgeStyle=orthogonalEdgeStyle;rounded=0;orthogonalLoop=1;jettySize=auto;html=1;exitX=0.75;exitY=0;exitDx=0;exitDy=0;entryX=0.5;entryY=1;entryDx=0;entryDy=0;" parent="1" source="X-KIfJeAQy9R9fYGySRZ-67" target="HqEFTpVDg2efrMnKJrko-6" edge="1">
          <mxGeometry relative="1" as="geometry" />
        </mxCell>
        <mxCell id="HqEFTpVDg2efrMnKJrko-15" style="edgeStyle=orthogonalEdgeStyle;rounded=0;orthogonalLoop=1;jettySize=auto;html=1;exitX=1;exitY=0;exitDx=0;exitDy=0;entryX=0.5;entryY=1;entryDx=0;entryDy=0;" parent="1" source="X-KIfJeAQy9R9fYGySRZ-67" target="HqEFTpVDg2efrMnKJrko-5" edge="1">
          <mxGeometry relative="1" as="geometry" />
        </mxCell>
        <mxCell id="X-KIfJeAQy9R9fYGySRZ-67" value="Local Decoder&lt;div&gt;&lt;/div&gt;" style="rounded=1;whiteSpace=wrap;html=1;fillColor=#000099;fontColor=#FFFFFF;" parent="1" vertex="1">
          <mxGeometry x="838" y="190" width="140" height="20" as="geometry" />
        </mxCell>
        <mxCell id="HqEFTpVDg2efrMnKJrko-1" value="byte4" style="rounded=1;whiteSpace=wrap;html=1;fillColor=#4d9901;fontColor=#FFFFFF;" parent="1" vertex="1">
          <mxGeometry x="958" y="90" width="40" height="30" as="geometry" />
        </mxCell>
        <mxCell id="HqEFTpVDg2efrMnKJrko-2" value="byte1" style="rounded=1;whiteSpace=wrap;html=1;fillColor=#4d9901;fontColor=#FFFFFF;" parent="1" vertex="1">
          <mxGeometry x="808" y="90" width="40" height="30" as="geometry" />
        </mxCell>
        <mxCell id="HqEFTpVDg2efrMnKJrko-3" value="byte2" style="rounded=1;whiteSpace=wrap;html=1;fillColor=#4d9901;fontColor=#FFFFFF;" parent="1" vertex="1">
          <mxGeometry x="858" y="90" width="40" height="30" as="geometry" />
        </mxCell>
        <mxCell id="HqEFTpVDg2efrMnKJrko-4" value="byte3" style="rounded=1;whiteSpace=wrap;html=1;fillColor=#4d9901;fontColor=#FFFFFF;" parent="1" vertex="1">
          <mxGeometry x="908" y="90" width="40" height="30" as="geometry" />
        </mxCell>
        <mxCell id="HqEFTpVDg2efrMnKJrko-5" value="Probs 4" style="rounded=1;whiteSpace=wrap;html=1;fillColor=#B35900;fontColor=#FFFFFF;" parent="1" vertex="1">
          <mxGeometry x="958" y="140" width="40" height="30" as="geometry" />
        </mxCell>
        <mxCell id="HqEFTpVDg2efrMnKJrko-6" value="Probs 3" style="rounded=1;whiteSpace=wrap;html=1;fillColor=#b35900;fontColor=#FFFFFF;" parent="1" vertex="1">
          <mxGeometry x="908" y="140" width="40" height="30" as="geometry" />
        </mxCell>
        <mxCell id="HqEFTpVDg2efrMnKJrko-7" value="Probs&lt;div&gt;2&lt;/div&gt;" style="rounded=1;whiteSpace=wrap;html=1;fillColor=#B35900;fontColor=#FFFFFF;" parent="1" vertex="1">
          <mxGeometry x="858" y="140" width="40" height="30" as="geometry" />
        </mxCell>
        <mxCell id="HqEFTpVDg2efrMnKJrko-8" value="Probs&lt;div&gt;1&lt;/div&gt;" style="rounded=1;whiteSpace=wrap;html=1;fillColor=#B35900;fontColor=#FFFFFF;" parent="1" vertex="1">
          <mxGeometry x="808" y="140" width="40" height="30" as="geometry" />
        </mxCell>
        <mxCell id="HqEFTpVDg2efrMnKJrko-16" value="Targets shifted by one" style="text;html=1;align=center;verticalAlign=middle;whiteSpace=wrap;rounded=0;" parent="1" vertex="1">
          <mxGeometry x="1024.5" y="90" width="90" height="30" as="geometry" />
        </mxCell>
        <mxCell id="HqEFTpVDg2efrMnKJrko-17" value="Output probability distributions" style="text;html=1;align=center;verticalAlign=middle;whiteSpace=wrap;rounded=0;" parent="1" vertex="1">
          <mxGeometry x="1013.5" y="140" width="112" height="30" as="geometry" />
        </mxCell>
        <mxCell id="HqEFTpVDg2efrMnKJrko-18" value="Original BLT" style="text;html=1;align=center;verticalAlign=middle;whiteSpace=wrap;rounded=0;" parent="1" vertex="1">
          <mxGeometry x="1033.5" y="230" width="72" height="30" as="geometry" />
        </mxCell>
        <mxCell id="HqEFTpVDg2efrMnKJrko-21" value="&lt;font style=&quot;font-size: 20px;&quot;&gt;STEP 1&lt;/font&gt;&lt;div&gt;&lt;font&gt;Backward prediction&lt;/font&gt;&lt;/div&gt;" style="text;html=1;align=center;verticalAlign=middle;whiteSpace=wrap;rounded=0;labelBorderColor=none;" parent="1" vertex="1">
          <mxGeometry x="100" y="30" width="140" height="30" as="geometry" />
        </mxCell>
        <mxCell id="4HplRLwEA6IAALqAFYQo-11" value="" style="rounded=1;whiteSpace=wrap;html=1;fillColor=#FFFFCC;" vertex="1" parent="1">
          <mxGeometry x="410" y="198.5" width="56" height="40" as="geometry" />
        </mxCell>
        <mxCell id="4HplRLwEA6IAALqAFYQo-12" value="" style="rounded=1;whiteSpace=wrap;html=1;fillColor=#CCFFFF;" vertex="1" parent="1">
          <mxGeometry x="470" y="198.5" width="152" height="40" as="geometry" />
        </mxCell>
        <mxCell id="4HplRLwEA6IAALqAFYQo-13" value="latent0" style="rounded=1;whiteSpace=wrap;html=1;fillColor=#B35900;fontColor=#FFFFFF;" vertex="1" parent="1">
          <mxGeometry x="418" y="203.5" width="40" height="30" as="geometry" />
        </mxCell>
        <mxCell id="4HplRLwEA6IAALqAFYQo-14" value="latent1" style="rounded=1;whiteSpace=wrap;html=1;fillColor=#B35900;fontColor=#FFFFFF;" vertex="1" parent="1">
          <mxGeometry x="476" y="203.5" width="40" height="30" as="geometry" />
        </mxCell>
        <mxCell id="4HplRLwEA6IAALqAFYQo-15" value="latent2" style="rounded=1;whiteSpace=wrap;html=1;fillColor=#B35900;fontColor=#FFFFFF;" vertex="1" parent="1">
          <mxGeometry x="526" y="203.5" width="40" height="30" as="geometry" />
        </mxCell>
        <mxCell id="4HplRLwEA6IAALqAFYQo-16" value="latent3" style="rounded=1;whiteSpace=wrap;html=1;fillColor=#B35900;fontColor=#FFFFFF;" vertex="1" parent="1">
          <mxGeometry x="576" y="203.5" width="40" height="30" as="geometry" />
        </mxCell>
        <mxCell id="4HplRLwEA6IAALqAFYQo-71" style="edgeStyle=orthogonalEdgeStyle;rounded=0;orthogonalLoop=1;jettySize=auto;html=1;exitX=0.5;exitY=0;exitDx=0;exitDy=0;entryX=0.5;entryY=1;entryDx=0;entryDy=0;" edge="1" parent="1" source="4HplRLwEA6IAALqAFYQo-18" target="4HplRLwEA6IAALqAFYQo-63">
          <mxGeometry relative="1" as="geometry" />
        </mxCell>
        <mxCell id="4HplRLwEA6IAALqAFYQo-18" value="Probs 3-2" style="rounded=1;whiteSpace=wrap;html=1;fillColor=#E67300;fontColor=#FFFFFF;" vertex="1" parent="1">
          <mxGeometry x="576" y="370" width="40" height="30" as="geometry" />
        </mxCell>
        <mxCell id="4HplRLwEA6IAALqAFYQo-66" style="edgeStyle=orthogonalEdgeStyle;rounded=0;orthogonalLoop=1;jettySize=auto;html=1;exitX=0.5;exitY=0;exitDx=0;exitDy=0;entryX=0.5;entryY=1;entryDx=0;entryDy=0;" edge="1" parent="1" source="4HplRLwEA6IAALqAFYQo-20" target="4HplRLwEA6IAALqAFYQo-62">
          <mxGeometry relative="1" as="geometry" />
        </mxCell>
        <mxCell id="4HplRLwEA6IAALqAFYQo-20" value="Probs 2-1" style="rounded=1;whiteSpace=wrap;html=1;fillColor=#E67300;fontColor=#FFFFFF;" vertex="1" parent="1">
          <mxGeometry x="526" y="370" width="40" height="30" as="geometry" />
        </mxCell>
        <mxCell id="4HplRLwEA6IAALqAFYQo-67" style="edgeStyle=orthogonalEdgeStyle;rounded=0;orthogonalLoop=1;jettySize=auto;html=1;exitX=0.5;exitY=0;exitDx=0;exitDy=0;entryX=0.5;entryY=1;entryDx=0;entryDy=0;" edge="1" parent="1" source="4HplRLwEA6IAALqAFYQo-22" target="4HplRLwEA6IAALqAFYQo-61">
          <mxGeometry relative="1" as="geometry" />
        </mxCell>
        <mxCell id="4HplRLwEA6IAALqAFYQo-22" value="Probs&amp;nbsp;&lt;div&gt;1-0&lt;/div&gt;" style="rounded=1;whiteSpace=wrap;html=1;fillColor=#E67300;fontColor=#FFFFFF;" vertex="1" parent="1">
          <mxGeometry x="476" y="370" width="40" height="30" as="geometry" />
        </mxCell>
        <mxCell id="4HplRLwEA6IAALqAFYQo-26" value="Patch1" style="rounded=1;whiteSpace=wrap;html=1;fillColor=#CCFFFF;fontColor=#000000;" vertex="1" parent="1">
          <mxGeometry x="526" y="90" width="40" height="30" as="geometry" />
        </mxCell>
        <mxCell id="4HplRLwEA6IAALqAFYQo-27" value="Patch0" style="rounded=1;whiteSpace=wrap;html=1;fillColor=#FFFFCC;fontColor=#000000;" vertex="1" parent="1">
          <mxGeometry x="418" y="90" width="40" height="30" as="geometry" />
        </mxCell>
        <mxCell id="4HplRLwEA6IAALqAFYQo-64" style="edgeStyle=orthogonalEdgeStyle;rounded=0;orthogonalLoop=1;jettySize=auto;html=1;exitX=0.5;exitY=0;exitDx=0;exitDy=0;entryX=0.5;entryY=1;entryDx=0;entryDy=0;" edge="1" parent="1" source="4HplRLwEA6IAALqAFYQo-29" target="4HplRLwEA6IAALqAFYQo-60">
          <mxGeometry relative="1" as="geometry" />
        </mxCell>
        <mxCell id="4HplRLwEA6IAALqAFYQo-29" value="Probs&amp;nbsp;&lt;div&gt;1-(-1)&lt;/div&gt;" style="rounded=1;whiteSpace=wrap;html=1;fillColor=#E67300;fontColor=#FFFFFF;" vertex="1" parent="1">
          <mxGeometry x="418" y="370" width="40" height="30" as="geometry" />
        </mxCell>
        <mxCell id="4HplRLwEA6IAALqAFYQo-36" style="edgeStyle=orthogonalEdgeStyle;rounded=0;orthogonalLoop=1;jettySize=auto;html=1;exitX=0.5;exitY=0;exitDx=0;exitDy=0;entryX=0.5;entryY=1;entryDx=0;entryDy=0;" edge="1" parent="1" source="4HplRLwEA6IAALqAFYQo-31" target="X-KIfJeAQy9R9fYGySRZ-67">
          <mxGeometry relative="1" as="geometry" />
        </mxCell>
        <mxCell id="4HplRLwEA6IAALqAFYQo-31" value="Latent Transformer&lt;div&gt;&lt;/div&gt;" style="rounded=1;whiteSpace=wrap;html=1;fillColor=#000099;fontColor=#FFFFFF;" vertex="1" parent="1">
          <mxGeometry x="838" y="235" width="140" height="20" as="geometry" />
        </mxCell>
        <mxCell id="4HplRLwEA6IAALqAFYQo-35" style="edgeStyle=orthogonalEdgeStyle;rounded=0;orthogonalLoop=1;jettySize=auto;html=1;exitX=0.5;exitY=0;exitDx=0;exitDy=0;entryX=0.5;entryY=1;entryDx=0;entryDy=0;" edge="1" parent="1" source="4HplRLwEA6IAALqAFYQo-32" target="4HplRLwEA6IAALqAFYQo-31">
          <mxGeometry relative="1" as="geometry" />
        </mxCell>
        <mxCell id="4HplRLwEA6IAALqAFYQo-32" value="Local Encoder&lt;div&gt;&lt;/div&gt;" style="rounded=1;whiteSpace=wrap;html=1;fillColor=#000099;fontColor=#FFFFFF;" vertex="1" parent="1">
          <mxGeometry x="838" y="275" width="140" height="20" as="geometry" />
        </mxCell>
        <mxCell id="4HplRLwEA6IAALqAFYQo-33" value="" style="endArrow=classic;html=1;rounded=0;entryX=0;entryY=0.75;entryDx=0;entryDy=0;" edge="1" parent="1" target="4HplRLwEA6IAALqAFYQo-32">
          <mxGeometry width="50" height="50" relative="1" as="geometry">
            <mxPoint x="795" y="390" as="sourcePoint" />
            <mxPoint x="810" y="290" as="targetPoint" />
            <Array as="points">
              <mxPoint x="785" y="390" />
              <mxPoint x="785" y="290" />
            </Array>
          </mxGeometry>
        </mxCell>
        <mxCell id="4HplRLwEA6IAALqAFYQo-34" value="" style="endArrow=classic;html=1;rounded=0;entryX=1;entryY=0.75;entryDx=0;entryDy=0;" edge="1" parent="1" target="4HplRLwEA6IAALqAFYQo-32">
          <mxGeometry width="50" height="50" relative="1" as="geometry">
            <mxPoint x="1000" y="330" as="sourcePoint" />
            <mxPoint x="920" y="250" as="targetPoint" />
            <Array as="points">
              <mxPoint x="1010" y="330" />
              <mxPoint x="1010" y="290" />
            </Array>
          </mxGeometry>
        </mxCell>
        <mxCell id="4HplRLwEA6IAALqAFYQo-38" value="" style="endArrow=classic;html=1;rounded=0;entryX=0;entryY=0.75;entryDx=0;entryDy=0;" edge="1" parent="1" target="X-KIfJeAQy9R9fYGySRZ-67">
          <mxGeometry width="50" height="50" relative="1" as="geometry">
            <mxPoint x="780" y="390" as="sourcePoint" />
            <mxPoint x="823" y="290" as="targetPoint" />
            <Array as="points">
              <mxPoint x="770" y="390" />
              <mxPoint x="770" y="205" />
            </Array>
          </mxGeometry>
        </mxCell>
        <mxCell id="4HplRLwEA6IAALqAFYQo-39" value="Patches &amp;amp; latents instead of patches &amp;amp; bytes as inputs" style="text;html=1;align=center;verticalAlign=middle;whiteSpace=wrap;rounded=0;" vertex="1" parent="1">
          <mxGeometry x="1016.25" y="345" width="106.5" height="30" as="geometry" />
        </mxCell>
        <mxCell id="4HplRLwEA6IAALqAFYQo-40" value="&lt;font style=&quot;font-size: 20px;&quot;&gt;STEP 2&lt;/font&gt;&lt;div&gt;&lt;font&gt;Entropy &amp;amp; Patching&lt;/font&gt;&lt;/div&gt;" style="text;html=1;align=center;verticalAlign=middle;whiteSpace=wrap;rounded=0;labelBorderColor=none;" vertex="1" parent="1">
          <mxGeometry x="446" y="30" width="140" height="30" as="geometry" />
        </mxCell>
        <mxCell id="4HplRLwEA6IAALqAFYQo-41" value="&lt;font style=&quot;font-size: 20px;&quot;&gt;STEP 3&lt;/font&gt;&lt;div&gt;&lt;font&gt;Byte Latent Transformer&lt;/font&gt;&lt;/div&gt;" style="text;html=1;align=center;verticalAlign=middle;whiteSpace=wrap;rounded=0;labelBorderColor=none;" vertex="1" parent="1">
          <mxGeometry x="836" y="30" width="140" height="30" as="geometry" />
        </mxCell>
        <mxCell id="4HplRLwEA6IAALqAFYQo-56" style="edgeStyle=orthogonalEdgeStyle;rounded=0;orthogonalLoop=1;jettySize=auto;html=1;exitX=0.5;exitY=0;exitDx=0;exitDy=0;entryX=0.5;entryY=1;entryDx=0;entryDy=0;" edge="1" parent="1" source="4HplRLwEA6IAALqAFYQo-47" target="4HplRLwEA6IAALqAFYQo-11">
          <mxGeometry relative="1" as="geometry" />
        </mxCell>
        <mxCell id="4HplRLwEA6IAALqAFYQo-47" value="Patch" style="rounded=1;whiteSpace=wrap;html=1;fontColor=#FFFFFF;fillColor=#000000;" vertex="1" parent="1">
          <mxGeometry x="414.5" y="260" width="47" height="30" as="geometry" />
        </mxCell>
        <mxCell id="4HplRLwEA6IAALqAFYQo-48" value="Patch" style="rounded=1;whiteSpace=wrap;html=1;fontColor=#FFFFFF;fillColor=#000000;" vertex="1" parent="1">
          <mxGeometry x="472.5" y="260" width="47" height="30" as="geometry" />
        </mxCell>
        <mxCell id="4HplRLwEA6IAALqAFYQo-58" style="edgeStyle=orthogonalEdgeStyle;rounded=0;orthogonalLoop=1;jettySize=auto;html=1;exitX=0.5;exitY=0;exitDx=0;exitDy=0;entryX=0.5;entryY=1;entryDx=0;entryDy=0;" edge="1" parent="1" source="4HplRLwEA6IAALqAFYQo-49" target="4HplRLwEA6IAALqAFYQo-12">
          <mxGeometry relative="1" as="geometry" />
        </mxCell>
        <mxCell id="4HplRLwEA6IAALqAFYQo-49" value="Patch" style="rounded=1;whiteSpace=wrap;html=1;fontColor=#FFFFFF;fillColor=#000000;" vertex="1" parent="1">
          <mxGeometry x="522.5" y="260" width="47" height="30" as="geometry" />
        </mxCell>
        <mxCell id="4HplRLwEA6IAALqAFYQo-50" value="Patch" style="rounded=1;whiteSpace=wrap;html=1;fontColor=#FFFFFF;fillColor=#000000;" vertex="1" parent="1">
          <mxGeometry x="572.5" y="260" width="47" height="30" as="geometry" />
        </mxCell>
        <mxCell id="4HplRLwEA6IAALqAFYQo-57" style="edgeStyle=orthogonalEdgeStyle;rounded=0;orthogonalLoop=1;jettySize=auto;html=1;exitX=0.5;exitY=0;exitDx=0;exitDy=0;entryX=0.169;entryY=1.011;entryDx=0;entryDy=0;entryPerimeter=0;" edge="1" parent="1" source="4HplRLwEA6IAALqAFYQo-48" target="4HplRLwEA6IAALqAFYQo-12">
          <mxGeometry relative="1" as="geometry">
            <mxPoint x="496" y="316" as="targetPoint" />
          </mxGeometry>
        </mxCell>
        <mxCell id="4HplRLwEA6IAALqAFYQo-59" style="edgeStyle=orthogonalEdgeStyle;rounded=0;orthogonalLoop=1;jettySize=auto;html=1;exitX=0.5;exitY=0;exitDx=0;exitDy=0;entryX=0.829;entryY=1.001;entryDx=0;entryDy=0;entryPerimeter=0;" edge="1" parent="1" source="4HplRLwEA6IAALqAFYQo-50" target="4HplRLwEA6IAALqAFYQo-12">
          <mxGeometry relative="1" as="geometry" />
        </mxCell>
        <mxCell id="4HplRLwEA6IAALqAFYQo-65" style="edgeStyle=orthogonalEdgeStyle;rounded=0;orthogonalLoop=1;jettySize=auto;html=1;exitX=0.5;exitY=0;exitDx=0;exitDy=0;entryX=0.5;entryY=1;entryDx=0;entryDy=0;" edge="1" parent="1" source="4HplRLwEA6IAALqAFYQo-60" target="4HplRLwEA6IAALqAFYQo-47">
          <mxGeometry relative="1" as="geometry" />
        </mxCell>
        <mxCell id="4HplRLwEA6IAALqAFYQo-60" value="Entropy" style="rounded=1;whiteSpace=wrap;html=1;fontColor=#FFFFFF;fillColor=#000000;" vertex="1" parent="1">
          <mxGeometry x="414.5" y="315" width="47" height="30" as="geometry" />
        </mxCell>
        <mxCell id="4HplRLwEA6IAALqAFYQo-68" style="edgeStyle=orthogonalEdgeStyle;rounded=0;orthogonalLoop=1;jettySize=auto;html=1;exitX=0.5;exitY=0;exitDx=0;exitDy=0;entryX=0.5;entryY=1;entryDx=0;entryDy=0;" edge="1" parent="1" source="4HplRLwEA6IAALqAFYQo-61" target="4HplRLwEA6IAALqAFYQo-48">
          <mxGeometry relative="1" as="geometry" />
        </mxCell>
        <mxCell id="4HplRLwEA6IAALqAFYQo-61" value="Entropy" style="rounded=1;whiteSpace=wrap;html=1;fontColor=#FFFFFF;fillColor=#000000;" vertex="1" parent="1">
          <mxGeometry x="472.5" y="315" width="47" height="30" as="geometry" />
        </mxCell>
        <mxCell id="4HplRLwEA6IAALqAFYQo-69" style="edgeStyle=orthogonalEdgeStyle;rounded=0;orthogonalLoop=1;jettySize=auto;html=1;exitX=0.5;exitY=0;exitDx=0;exitDy=0;entryX=0.5;entryY=1;entryDx=0;entryDy=0;" edge="1" parent="1" source="4HplRLwEA6IAALqAFYQo-62" target="4HplRLwEA6IAALqAFYQo-49">
          <mxGeometry relative="1" as="geometry" />
        </mxCell>
        <mxCell id="4HplRLwEA6IAALqAFYQo-62" value="Entropy" style="rounded=1;whiteSpace=wrap;html=1;fontColor=#FFFFFF;fillColor=#000000;" vertex="1" parent="1">
          <mxGeometry x="522.5" y="315" width="47" height="30" as="geometry" />
        </mxCell>
        <mxCell id="4HplRLwEA6IAALqAFYQo-70" style="edgeStyle=orthogonalEdgeStyle;rounded=0;orthogonalLoop=1;jettySize=auto;html=1;exitX=0.5;exitY=0;exitDx=0;exitDy=0;entryX=0.5;entryY=1;entryDx=0;entryDy=0;" edge="1" parent="1" source="4HplRLwEA6IAALqAFYQo-63" target="4HplRLwEA6IAALqAFYQo-50">
          <mxGeometry relative="1" as="geometry" />
        </mxCell>
        <mxCell id="4HplRLwEA6IAALqAFYQo-63" value="Entropy" style="rounded=1;whiteSpace=wrap;html=1;fontColor=#FFFFFF;fillColor=#000000;" vertex="1" parent="1">
          <mxGeometry x="572.5" y="315" width="47" height="30" as="geometry" />
        </mxCell>
        <mxCell id="4HplRLwEA6IAALqAFYQo-72" value="Previous byte probabilities" style="text;html=1;align=center;verticalAlign=middle;whiteSpace=wrap;rounded=0;" vertex="1" parent="1">
          <mxGeometry x="630" y="370" width="110" height="30" as="geometry" />
        </mxCell>
        <mxCell id="4HplRLwEA6IAALqAFYQo-73" value="Calculate entropy" style="text;html=1;align=center;verticalAlign=middle;whiteSpace=wrap;rounded=0;" vertex="1" parent="1">
          <mxGeometry x="630" y="315" width="110" height="30" as="geometry" />
        </mxCell>
        <mxCell id="4HplRLwEA6IAALqAFYQo-74" value="Threshold: decide on new patch" style="text;html=1;align=center;verticalAlign=middle;whiteSpace=wrap;rounded=0;" vertex="1" parent="1">
          <mxGeometry x="630" y="260" width="110" height="30" as="geometry" />
        </mxCell>
        <mxCell id="4HplRLwEA6IAALqAFYQo-75" value="Group latents" style="text;html=1;align=center;verticalAlign=middle;whiteSpace=wrap;rounded=0;" vertex="1" parent="1">
          <mxGeometry x="630" y="203.5" width="110" height="30" as="geometry" />
        </mxCell>
        <mxCell id="4HplRLwEA6IAALqAFYQo-76" value="Initialize patches via pooling" style="text;html=1;align=center;verticalAlign=middle;whiteSpace=wrap;rounded=0;" vertex="1" parent="1">
          <mxGeometry x="630" y="150" width="110" height="30" as="geometry" />
        </mxCell>
        <mxCell id="4HplRLwEA6IAALqAFYQo-82" style="edgeStyle=orthogonalEdgeStyle;rounded=0;orthogonalLoop=1;jettySize=auto;html=1;exitX=0.5;exitY=0;exitDx=0;exitDy=0;entryX=0.5;entryY=1;entryDx=0;entryDy=0;" edge="1" parent="1" source="4HplRLwEA6IAALqAFYQo-80" target="4HplRLwEA6IAALqAFYQo-27">
          <mxGeometry relative="1" as="geometry" />
        </mxCell>
        <mxCell id="4HplRLwEA6IAALqAFYQo-80" value="Pool" style="rounded=1;whiteSpace=wrap;html=1;fontColor=#FFFFFF;fillColor=#000000;" vertex="1" parent="1">
          <mxGeometry x="414.5" y="150" width="47" height="30" as="geometry" />
        </mxCell>
        <mxCell id="4HplRLwEA6IAALqAFYQo-83" style="edgeStyle=orthogonalEdgeStyle;rounded=0;orthogonalLoop=1;jettySize=auto;html=1;exitX=0.5;exitY=0;exitDx=0;exitDy=0;entryX=0.5;entryY=1;entryDx=0;entryDy=0;" edge="1" parent="1" source="4HplRLwEA6IAALqAFYQo-81" target="4HplRLwEA6IAALqAFYQo-26">
          <mxGeometry relative="1" as="geometry" />
        </mxCell>
        <mxCell id="4HplRLwEA6IAALqAFYQo-81" value="Pool" style="rounded=1;whiteSpace=wrap;html=1;fontColor=#FFFFFF;fillColor=#000000;" vertex="1" parent="1">
          <mxGeometry x="522.5" y="150" width="47" height="30" as="geometry" />
        </mxCell>
      </root>
    </mxGraphModel>
  </diagram>
</mxfile>
